<?xml version="1.0" encoding="UTF-8"?>
<svg width="125px" height="125px" viewBox="0 0 125 125" version="1.1" xmlns="http://www.w3.org/2000/svg" xmlns:xlink="http://www.w3.org/1999/xlink">
    <!-- Generator: Sketch 43.1 (39012) - http://www.bohemiancoding.com/sketch -->
    <title>element-blog</title>
    <desc>Created with Sketch.</desc>
    <defs></defs>
    <g id="Page-1" stroke="none" stroke-width="1" fill="none" fill-rule="evenodd">
        <g id="Artboard-5" transform="translate(-404.000000, -106.000000)">
            <g id="blog" transform="translate(404.000000, 106.000000)">
                <rect id="Rectangle-16" fill="#FFFFFF" x="0" y="0" width="125" height="125"></rect>
                <g id="post" transform="translate(12.000000, 26.000000)">
                    <rect id="Rectangle-20" stroke="#3EB0F7" stroke-width="2" x="1" y="1" width="42.1140137" height="43"></rect>
                    <path d="M8.9278361,27.5 L16.2801717,20.5" id="Line" stroke="#DDDDDD" stroke-linecap="square"></path>
                    <path d="M18.380839,23.5 L16.2801717,20.5" id="Line-Copy-2" stroke="#DDDDDD" stroke-linecap="square"></path>
                    <path d="M18.380839,23.5 L24.682841,16.5" id="Line-Copy-3" stroke="#DDDDDD" stroke-linecap="square"></path>
                    <path d="M24.682841,16.5 L30.9848429,25.5" id="Line-Copy-4" stroke="#DDDDDD" stroke-linecap="square"></path>
                    <path d="M2.62583415,57 L41.4881795,57" id="Line" stroke="#DDDDDD" stroke-width="4" stroke-linecap="square"></path>
                    <path d="M6.82716878,67 L38.3371785,67" id="Line" stroke="#DDDDDD" stroke-width="2" stroke-linecap="square"></path>
                    <path d="M12.0788371,72 L30.9848429,72" id="Line-Copy-5" stroke="#DDDDDD" stroke-width="2" stroke-linecap="square"></path>
                </g>
                <g id="post-copy" transform="translate(69.000000, 26.000000)">
                    <rect id="Rectangle-20" stroke="#3EB0F7" stroke-width="2" x="1" y="1" width="42.1140137" height="43"></rect>
                    <path d="M8.9278361,27.5 L16.2801717,20.5" id="Line" stroke="#DDDDDD" stroke-linecap="square"></path>
                    <path d="M18.380839,23.5 L16.2801717,20.5" id="Line-Copy-2" stroke="#DDDDDD" stroke-linecap="square"></path>
                    <path d="M18.380839,23.5 L24.682841,16.5" id="Line-Copy-3" stroke="#DDDDDD" stroke-linecap="square"></path>
                    <path d="M24.682841,16.5 L30.9848429,25.5" id="Line-Copy-4" stroke="#DDDDDD" stroke-linecap="square"></path>
                    <path d="M2.62583415,57 L41.4881795,57" id="Line" stroke="#DDDDDD" stroke-width="4" stroke-linecap="square"></path>
                    <path d="M6.82716878,67 L38.3371785,67" id="Line" stroke="#DDDDDD" stroke-width="2" stroke-linecap="square"></path>
                    <path d="M12.0788371,72 L30.9848429,72" id="Line-Copy-5" stroke="#DDDDDD" stroke-width="2" stroke-linecap="square"></path>
                </g>
            </g>
        </g>
    </g>
</svg>